<svg width="32" height="32" viewBox="0 0 32 32" fill="none" xmlns="http://www.w3.org/2000/svg">
<path d="M14.7071 21.2923C14.8001 21.3852 14.8738 21.4955 14.9241 21.6169C14.9745 21.7383 15.0004 21.8684 15.0004 21.9998C15.0004 22.1312 14.9745 22.2614 14.9241 22.3828C14.8738 22.5042 14.8001 22.6144 14.7071 22.7073L10.7071 26.7073C10.6142 26.8003 10.5039 26.874 10.3825 26.9244C10.2611 26.9747 10.131 27.0006 9.99958 27.0006C9.86816 27.0006 9.73804 26.9747 9.61664 26.9244C9.49524 26.874 9.38495 26.8003 9.29208 26.7073L5.29208 22.7073C5.19917 22.6144 5.12547 22.5041 5.07519 22.3827C5.0249 22.2613 4.99902 22.1312 4.99902 21.9998C4.99902 21.8684 5.0249 21.7383 5.07519 21.6169C5.12547 21.4955 5.19917 21.3852 5.29208 21.2923C5.47972 21.1047 5.73422 20.9993 5.99958 20.9993C6.13097 20.9993 6.26108 21.0251 6.38248 21.0754C6.50387 21.1257 6.61417 21.1994 6.70708 21.2923L8.99958 23.5861V5.99981C8.99958 5.73459 9.10494 5.48024 9.29247 5.2927C9.48001 5.10517 9.73436 4.99981 9.99958 4.99981C10.2648 4.99981 10.5191 5.10517 10.7067 5.2927C10.8942 5.48024 10.9996 5.73459 10.9996 5.99981V23.5861L13.2921 21.2923C13.385 21.1993 13.4952 21.1256 13.6166 21.0752C13.738 21.0249 13.8682 20.999 13.9996 20.999C14.131 20.999 14.2611 21.0249 14.3825 21.0752C14.5039 21.1256 14.6142 21.1993 14.7071 21.2923ZM26.7071 9.29231L22.7071 5.29231C22.6142 5.19933 22.5039 5.12557 22.3825 5.07525C22.2611 5.02493 22.131 4.99902 21.9996 4.99902C21.8682 4.99902 21.738 5.02493 21.6166 5.07525C21.4952 5.12557 21.385 5.19933 21.2921 5.29231L17.2921 9.29231C17.1044 9.47995 16.999 9.73445 16.999 9.99981C16.999 10.2652 17.1044 10.5197 17.2921 10.7073C17.4797 10.895 17.7342 11.0004 17.9996 11.0004C18.2649 11.0004 18.5194 10.895 18.7071 10.7073L20.9996 8.41356V25.9998C20.9996 26.265 21.1049 26.5194 21.2925 26.7069C21.48 26.8945 21.7344 26.9998 21.9996 26.9998C22.2648 26.9998 22.5192 26.8945 22.7067 26.7069C22.8942 26.5194 22.9996 26.265 22.9996 25.9998V8.41356L25.2921 10.7073C25.4797 10.895 25.7342 11.0004 25.9996 11.0004C26.2649 11.0004 26.5194 10.895 26.7071 10.7073C26.8947 10.5197 27.0001 10.2652 27.0001 9.99981C27.0001 9.73445 26.8947 9.47995 26.7071 9.29231Z" fill="white"/>
</svg>
